<?xml version="1.0" encoding="UTF-8" standalone="no"?>
<svg
   viewBox="0 0 546.82807 213.70796"
   height="213.70796"
   width="546.82806"
   xml:space="preserve"
   id="svg2"
   version="1.1"
   sodipodi:docname="logo1.svg"
   inkscape:version="1.1.2 (0a00cf5339, 2022-02-04)"
   xmlns:inkscape="http://www.inkscape.org/namespaces/inkscape"
   xmlns:sodipodi="http://sodipodi.sourceforge.net/DTD/sodipodi-0.dtd"
   xmlns="http://www.w3.org/2000/svg"
   xmlns:svg="http://www.w3.org/2000/svg"
   xmlns:rdf="http://www.w3.org/1999/02/22-rdf-syntax-ns#"
   xmlns:cc="http://creativecommons.org/ns#"
   xmlns:dc="http://purl.org/dc/elements/1.1/"><sodipodi:namedview
     id="namedview17"
     pagecolor="#ffffff"
     bordercolor="#666666"
     borderopacity="1.0"
     inkscape:pageshadow="2"
     inkscape:pageopacity="0.0"
     inkscape:pagecheckerboard="0"
     showgrid="false"
     showguides="true"
     inkscape:guide-bbox="true"
     fit-margin-top="0"
     fit-margin-left="0"
     fit-margin-right="0"
     fit-margin-bottom="0"
     inkscape:zoom="1.9192005"
     inkscape:cx="313.41176"
     inkscape:cy="78.41807"
     inkscape:window-width="1846"
     inkscape:window-height="1016"
     inkscape:window-x="0"
     inkscape:window-y="0"
     inkscape:window-maximized="1"
     inkscape:current-layer="svg2"><sodipodi:guide
       position="-7.7937128e-07,131.90307"
       orientation="1,0"
       id="guide38" /><sodipodi:guide
       position="-7.7937128e-07,213.70797"
       orientation="0,-1"
       id="guide40" /></sodipodi:namedview><metadata
     id="metadata8"><rdf:RDF><cc:Work
         rdf:about=""><dc:format>image/svg+xml</dc:format><dc:type
           rdf:resource="http://purl.org/dc/dcmitype/StillImage" /></cc:Work></rdf:RDF></metadata><defs
     id="defs6"><clipPath
       id="clipPath18"
       clipPathUnits="userSpaceOnUse"><path
         id="path16"
         d="M 0,305.596 H 439.66 V 0 H 0 Z" /></clipPath><clipPath
       clipPathUnits="userSpaceOnUse"
       id="clipPath68"><rect
         style="fill:#0000ff;fill-rule:evenodd;stroke-width:0.75"
         id="rect70"
         width="410.36221"
         height="162.05022"
         x="34.780109"
         y="-211.80695"
         transform="scale(1,-1)" /></clipPath></defs><g
     transform="matrix(1.3333333,0,0,-1.3333333,-46.373478,282.40925)"
     id="g10"
     clip-path="none"
     style="opacity:0.25;fill:#000000"><g
   id="g12"
   style="fill:#000000"><g
     clip-path="url(#clipPath18)"
     id="g14"
     style="fill:#000000"><g
       transform="translate(95.1669,189.3707)"
       id="g20"
       style="fill:#000000"><path
         id="path22"
         style="fill:#000000;fill-opacity:1;fill-rule:nonzero;stroke:none"
         d="m 0,0 c 0.15,-1.15 0.23,-2.39 0.23,-3.73 v -104.56 c 0.16,1.99 0.23,4.09 0.23,6.3 V -3.71 C 0.42,-2.38 0.27,-1.14 0,0" /></g><g
       transform="translate(180.8069,66.7908)"
       id="g24"
       style="fill:#000000"><path
         id="path26"
         style="fill:#000000;fill-opacity:1;fill-rule:nonzero;stroke:none"
         d="m 0,0 -2.27,-10.79 h -84.09 c -5.68,-2.85 -12.72,-4.28 -21.12,-4.28 -5.48,0 -10.39,0.93 -14.72,2.79 -7.787,3.345 -13.228,8.831 -16.609,16.631 -2.178,5.023 -3.36,10.424 -4.153,15.841 3.541,0.672 7.083,1.345 10.625,2.017 1.405,0.267 3.474,1.273 4.49,-0.102 1.115,-1.509 0.182,-5.778 0.301,-7.614 0.53,-8.167 2.756,-17.971 9.356,-23.433 2.95,-2.45 6.53,-3.68 10.71,-3.68 13.39,0 20.74,8.97 22.07,26.91 0.16,1.99 0.23,4.09 0.23,6.3 v 98.28 c -0.04,1.33 -0.19,2.57 -0.46,3.71 -0.89,6.76 -4.43,10.14 -10.59,10.14 h -0.87 v 2.2 h 40.92 v -2.2 h -1.08 c -5.59,0 -9.02,-2.78 -10.28,-8.34 -0.37,-1.61 -0.55,-3.45 -0.55,-5.53 V -8.37 h 37.89 c 5.77,0 11.04,1.9 15.81,5.72 1.1,0.88 3.425,3.837 4.375,4.727 z" /></g></g></g><text
   id="text32"
   style="font-variant:normal;font-weight:normal;font-stretch:normal;font-size:98.6332px;font-family:Viceroyal;-inkscape-font-specification:Viceroyal;writing-mode:lr-tb;fill:#000000;fill-opacity:1;fill-rule:nonzero;stroke:none"
   transform="matrix(1,0,0,-1,114.7212,135.2222)"><tspan
     id="tspan28"
     y="0"
     x="0 39.157379 92.616577 132.85892 157.71449 178.72336 224.48917 245.79393"
     style="fill:#000000">Justicia</tspan><tspan
     id="tspan30"
     y="71.015907"
     x="0 49.119335 94.589241"
     style="fill:#000000">Law</tspan></text>
</g><rect
     style="opacity:0.25;fill:#000000;fill-rule:evenodd;stroke-width:1"
     id="rect78"
     width="546.82806"
     height="213.70796"
     x="0"
     y="0" /></svg>
